<?xml version="1.0" encoding="utf-8"?>
<!-- Generator: Adobe Illustrator 22.1.0, SVG Export Plug-In . SVG Version: 6.00 Build 0)  -->
<svg version="1.1" id="Calque_1" xmlns="http://www.w3.org/2000/svg" xmlns:xlink="http://www.w3.org/1999/xlink" x="0px" y="0px"
	 viewBox="0 0 612 792" style="enable-background:new 0 0 612 792;" xml:space="preserve">
<style type="text/css">
	.st0{fill:#FFFFFF;}
</style>
<g>
	<path d="M51.4,684c0-0.9,0-1.8,0-2.7c0.3-0.8,0.7-1.6,0.9-2.4c0.9-3.3,1.6-6.7,2.8-9.9c5.7-15.7,13.1-30.5,22.3-44.4
		c0.5-0.8,1.1-1.6,1.6-2.5c-0.1-0.4-0.2-0.7-0.4-1c-3.2-7.7-2.1-14.6,3.1-21.1c1.5-1.9,2.8-3.9,3.9-6c3.9-7.1,6-14.7,7.2-22.6
		c0.2-1.6,0.6-3.2,1.2-4.6c7.1-15.3,14.3-30.6,21.6-45.8c0.5-1.2,1.5-2.2,2.3-3.1c3-3.2,6.1-6.4,9.2-9.6c1.1-1.2,1.8-2.6,2.1-4.2
		c1.2-5.2,2.7-10.4,3.8-15.7c3-13.7,7.6-26.9,13.8-39.4c3-6,6.1-12,12-15.9c-4.1-1.6-8-0.4-10.5,2.9c-0.8,1.1-1.4,2.4-2.9,3.2
		c-0.4-1.6-0.1-3,0.2-4.3c2.3-10.1,6.2-19.5,11.6-28.3c3.9-6.3,8.5-11.9,14.6-16.3c2.5-1.8,4.8-3.9,7.1-5.9c1.3-1.2,2.5-2.5,3.6-3.9
		c0.8-0.9,1.8-2,1.1-3.3c-0.7-1.1-2-0.9-3.2-0.8c-4.8,0.6-9.6,1.3-13.5,4.8c-0.9,0.8-2.1,1.4-3.3,2.2c-0.2-0.8-0.3-1.1-0.3-1.4
		c0-0.6,0.1-1.2,0.3-1.8c1.2-4.8,3.5-9,7-12.6c1.6-1.6,3.2-3.3,4.5-5.2c1.4-1.9,1.1-2.6-1.2-3.2c-1.3-0.3-1.8-1.1-1.6-2.3
		c0.2-1.2,0.6-2.4,1.2-3.5c4.8-7.7,10.6-14.4,18.2-19.4c6.4-4.2,12.2-9.1,17.4-14.7c1.3-1.4,2.5-3,3.6-4.6c0.6-0.8,1-1.9,1-2.9
		c0-1.9,0.7-3.4,2.1-4.4c2.5-1.8,5-3.8,7.7-5.1c10.6-5,21.9-7.9,33.4-10.1c3.4-0.7,6.9-1.7,10.2-2.9c3.4-1.2,5.7-3.7,7-7.2
		c1.1-3.2,2.4-6.3,4.7-8.8c0.8-0.9,0.8-1.8,0.6-2.9c-3.6-17.1-4.5-34.3-2.5-51.7c1.9-16.6,6.4-32.4,14.4-47.1
		c3.1-5.8,5.4-11.9,6.2-18.5c0.6-5.2,0.2-10.4-3.3-14.6c-1.9-2.3-3-4.7-3.9-7.4c-2.8-8.5-4-17.4-4.6-26.3c-0.1-1.4,0-2.8,0-4.3
		c2.7,0.7,5.3,1.4,8.1,2.1c-0.1-1.7-0.1-3-0.3-4.3c-1.5-9.2-2.9-18.5-4.8-27.7c-1.4-7.1-3.3-14.1-7.9-20.4c0.9,0.2,1.5,0.2,2,0.4
		c7.9,2.8,15.1,6.9,21.2,12.7c0.8,0.7,1.5,1.5,2.4,2.1c8.7,6.5,17.4,13.1,26.2,19.4c6.7,4.7,13.8,9,20.7,13.5
		c1.3,0.8,2.7,1.2,4.3,1.2c3.4,0,6.8,0.6,9.3,3.1c1.3,1.3,2.6,1.5,4.2,1.2c7.1-1.5,14.2-2.9,21.3-4.2c2.8-0.5,5.2-1.5,7.5-3.2
		c2.8-2.1,6.1-2.6,9.6-2.2c3.2,0.4,5.9,1.8,8.4,3.7c0.9,0.7,1.7,1,2.9,0.9c23.4-1.5,46.2,1.4,68.2,9.8c1.7,0.7,3.3,0.7,5.1,0.1
		c6.5-2.4,12.8-2.3,18.5,2.3c0.1,0.1,0.3,0.1,0.7,0.2c5.4-4.7,10.9-9.4,16.4-14.2c4.9-4.2,9.8-8.4,14-13.4c1.7-2,3.7-3.8,5.7-5.5
		c2-1.6,4.1-3.1,6.2-4.5c1.5-1,3.2-1.5,5.1-1.1c0,0.2,0,0.4,0,0.5c-0.1,0.1-0.4,0.1-0.4,0.2c-2.3,4.6-4.2,9.3-5.3,14.4
		c-0.8,3.7-1,7.4-0.5,11.1c0,0.4,0.3,0.8,0.5,1.1c0.8-0.3,1.4-0.5,2.4-0.9c0.4,3,0.9,5.8,1,8.5c0.4,5.7-0.2,11.3-0.9,16.9
		c-0.3,2.7-1,5.1-3.2,7c-2.4,2.1-3.6,5-4.4,8c-2.3,9-2.2,18.1-0.1,27.1c2.5,10.5,4,21,3.3,31.8c-0.3,5.4-1,10.9-3.5,15.7
		c-2.6,5-3.7,10.2-3.7,15.7c0,0.3-0.1,0.5-0.1,0.8c0,2-0.4,4.2,0.1,6.1c1.2,4.4,1,8.8,0.5,13.2c-1,9.1-3.6,17.8-6.4,26.5
		c-0.7,2.1-1,4.3-1.2,6.5c-0.2,2.6-0.2,5.3,0,8c0.3,5.4,1,10.7,3.1,15.8c1.5,3.6,3.5,6.7,6.8,8.9c0.2,0.1,0.4,0.4,0.8,1
		c-1.7,0-3,0-4.5,0c0.6,2.6,1.2,5,1.7,7.4c2.2,11.2,2.6,22.5,2.4,33.8c-0.1,10.5-0.5,21-0.7,31.6c0,1.3,0.3,2.6,0.7,3.8
		c1,3.3,2.3,6.5,3,9.9c1.6,7.5,0.7,14.6-3.9,21c-0.8,1-0.6,1.9-0.3,3c1.8,5.3,3.6,10.5,5.3,15.9c2.4,7.5,4,15,3.6,22.9
		c-0.1,3-0.8,5.9-2.5,8.6c-0.5,0.7-0.8,1.6-1,2.4c-2.4,10.4-4.9,20.8-7.1,31.3c-1.1,5.1-1.8,10.4-2.7,15.7c-1.7,0.3-2.7-1-3.8-2.2
		c-1-1.1-1.9-2.4-3.1-3.8c-0.2,0.8-0.4,1.2-0.5,1.6c-0.9,3.7-1.6,7.4-2.8,11c-3.4,10.7-8.6,20.3-16.6,28.3
		c-5.2,5.3-10.4,10.6-15.4,16.1c-4.3,4.7-8.5,9.5-11.1,15.6c-1.5-0.9-2.6-2.1-3.2-3.5c-0.6-1.4-1-2.9-1.6-4.6
		c-0.7,0.8-1.2,1.5-1.8,2.1c-4.5,4.9-8.8,9.9-13.5,14.6c-5.4,5.4-11.5,9.8-18.2,13.6c-8.2,4.6-16.4,9.4-23,16.7
		c-1.3-2.2-2.5-4.3-3.7-6.4c-1.3-2.1-2.3-4.3-3.8-6.2c-1.1,0.5-2,0.9-2.9,1.3c-2.8,1.2-5.6,2.2-8.7,2c-1.8-0.1-3.2,0.6-4.6,1.7
		c-1.9,1.5-3.1,3.3-3.3,5.8c-0.3-0.1-0.5-0.1-0.6-0.1c-3.2-1.6-4.3-4.6-5-7.7c-1-4.2-1.4-8.6-0.9-12.9c0.3-2.5-0.4-4.7-1.4-6.9
		c-2.8-5.7-7.4-7.3-12.9-4.3c-2.7,1.5-5.2,3.4-7.4,5.5c-4.6,4.5-9.7,8.2-15.3,11.3c-2.6,1.5-5.4,2.6-8.2,3.6c-2.4,0.9-5,1.3-7.5,0.3
		c-2.3-0.9-4.1-0.2-5.9,1.2c-0.6,0.5-1.2,1.1-2,1.8c0.2-2.6,0.4-4.6,0.5-6.6c0.1-2.2-0.7-3.7-2.9-4.7c-5.1-2.2-9.2-5.5-12.1-10.3
		c-0.1-0.3-0.4-0.4-1-1.1c0,1.4,0,2.1,0,2.9c0,3.2,0.1,6.4,0.1,9.6c0,1-0.2,2.1-0.6,3.1c-6.7,18.6-14.5,36.9-23.5,54.5
		c-19.3,37.9-42.4,73.3-70.3,105.5c-7.8,9-17.7,14.1-29.3,16.3c-1.8,0.3-3.6,0.7-5.4,1.1c-3.2,0-6.4,0-9.6,0
		c-0.3-0.2-0.6-0.4-0.9-0.5c-5.2-1.5-7.2-4.3-7-9.7c0.1-3.5,0.9-7,2.7-9.9c2.1-3.5,1.4-6.4-0.8-9.3c-0.7-0.9-1.3-1.5-2.5-1.6
		c-4-0.5-7.9-0.2-11.9,0.5c-2.9,0.5-5.4,1.6-6.8,4.5c-2.3,0.1-3.9-1-5-2.7c-1.1-1.9-2.2-3.9-2.8-5.9c-2.4-8.5-2.9-17.3-1.7-26
		c0.8-5.8,2.3-11.4,3.6-17.1c1.1-4.7,2.6-9.3,3.9-14c-2-1.9-4-2.9-6.8-1.4c-0.6-1.2-1.2-2.3-1.7-3.4c-1.2-2.9-1.4-6-1.2-9.1
		c0.2-5.2,1.7-10.1,3.6-14.9c0.5-1.3,1-2.7,1.3-4c0.6-2.5-0.5-3.7-3.1-3.2c-3.1,0.7-5.2-0.5-6.4-3.5c-0.6-1.5-1.3-2.9-2.2-4.2
		c-1.4-1.9-2.9-2-4.8-0.5c-2.6,2-5,4.2-7.6,6.2c-3.5,2.6-6.4,5.7-9.1,9.2c-3,3.8-6.5,7.2-9.8,10.7c-1.8,1.9-4.1,2.6-6.8,2
		c-1.3-0.3-2.6-0.2-4-0.4c-1.2-0.2-2.5-0.3-3.6-0.8c-2.9-1.4-5-0.5-7.1,1.5c-3.4,3.2-6.9,6.3-10.7,9.1c-2.1,1.6-4.7,2.9-7.2,3.8
		c-4.5,1.6-8.5-0.2-10.6-4.5c-0.4-0.9-0.7-1.8-1-2.7C52.1,685.9,51.8,685,51.4,684z M410.4,213.7c17,0,30.7-13.7,30.6-30.7
		c-0.1-16.9-13.7-30.5-30.5-30.6c-16.9,0-30.5,13.5-30.6,30.5C379.9,200,393.4,213.7,410.4,213.7z M528.6,186.4
		c-0.5-3.5-0.8-7-1.6-10.5c-1.1-5.2-3.3-9.9-7.1-13.7c-5.9-6-13.6-6.1-19.4,0.1c-2,2.2-3.8,4.7-5,7.5c-4.8,11.2-4.7,22.5,0.1,33.7
		c1.2,2.9,3,5.4,5.3,7.6c5.7,5.4,12.8,5.4,18.5,0c2.4-2.3,4.2-5,5.5-8.1C527.3,197.7,528.3,192.2,528.6,186.4z M490,259.6
		c1.2-0.8,2.1-1.3,2.9-1.9c6.1-5,8.8-14.2,6.2-21.9c-2.5-7.3-6.8-13.3-12.8-18.2c-0.3-0.3-0.7-0.4-1.3-0.8c-1.3,3.6-2.6,7-5.3,9.5
		c-2.7,2.4-5.6,4.5-8.5,6.7c0.2,0.4,0.2,0.6,0.4,0.8c0.7,0.9,1.4,1.9,2.3,2.6c0.9,0.8,1.9,1.7,3,1.9c0.8,0.2,1.8-0.7,2.9-1.2
		C485.8,243.2,489.8,250.3,490,259.6z"/>
	<path class="st0" d="M560.6,72.4c-1.8-0.4-3.6,0.1-5.1,1.1c-2.2,1.4-4.3,2.8-6.2,4.5c-2,1.7-4,3.5-5.7,5.5c-4.1,5-9.1,9.2-14,13.4
		c-5.5,4.7-11,9.5-16.4,14.2c-0.3-0.1-0.5-0.1-0.7-0.2c-5.7-4.6-12-4.7-18.5-2.3c-1.8,0.7-3.3,0.6-5.1-0.1
		c-22-8.4-44.8-11.4-68.2-9.8c-1.2,0.1-2-0.2-2.9-0.9c-2.5-1.9-5.2-3.3-8.4-3.7c-3.5-0.5-6.7,0.1-9.6,2.2c-2.2,1.7-4.7,2.6-7.5,3.2
		c-7.1,1.3-14.2,2.8-21.3,4.2c-1.7,0.3-2.9,0.2-4.2-1.2c-2.5-2.5-5.9-3.2-9.3-3.1c-1.6,0-3-0.3-4.3-1.2c-6.9-4.5-13.9-8.7-20.7-13.5
		c-8.9-6.3-17.5-12.9-26.2-19.4c-0.8-0.6-1.6-1.4-2.4-2.1c-6.1-5.8-13.3-9.9-21.2-12.7c-0.5-0.2-1.1-0.2-2-0.4
		c4.6,6.3,6.5,13.3,7.9,20.4c1.8,9.2,3.2,18.4,4.8,27.7c0.2,1.3,0.2,2.6,0.3,4.3c-2.8-0.7-5.4-1.4-8.1-2.1c0,1.6-0.1,3,0,4.3
		c0.7,8.9,1.8,17.8,4.6,26.3c0.9,2.7,2.1,5.2,3.9,7.4c3.5,4.2,4,9.3,3.3,14.6c-0.8,6.6-3.1,12.7-6.2,18.5
		c-7.9,14.8-12.5,30.5-14.4,47.1c-2,17.4-1.1,34.6,2.5,51.7c0.2,1.2,0.2,2.1-0.6,2.9c-2.3,2.6-3.6,5.7-4.7,8.8
		c-1.2,3.5-3.6,5.9-7,7.2c-3.3,1.2-6.7,2.2-10.2,2.9c-11.5,2.3-22.8,5.1-33.4,10.1c-2.8,1.3-5.2,3.2-7.7,5.1c-1.4,1-2.1,2.5-2.1,4.4
		c0,1-0.4,2.1-1,2.9c-1.1,1.6-2.3,3.2-3.6,4.6c-5.2,5.6-11,10.5-17.4,14.7c-7.6,5-13.4,11.7-18.2,19.4c-0.6,1-1,2.3-1.2,3.5
		c-0.2,1.2,0.3,2,1.6,2.3c2.3,0.6,2.6,1.3,1.2,3.2c-1.3,1.9-2.9,3.6-4.5,5.2c-3.5,3.6-5.8,7.7-7,12.6c-0.1,0.6-0.2,1.2-0.3,1.8
		c0,0.3,0.1,0.7,0.3,1.4c1.3-0.8,2.4-1.4,3.3-2.2c3.9-3.5,8.6-4.2,13.5-4.8c1.1-0.1,2.5-0.4,3.2,0.8c0.8,1.3-0.3,2.4-1.1,3.3
		c-1.1,1.4-2.3,2.7-3.6,3.9c-2.3,2.1-4.6,4.1-7.1,5.9c-6.1,4.4-10.8,9.9-14.6,16.3c-5.4,8.8-9.3,18.3-11.6,28.3
		c-0.3,1.4-0.6,2.7-0.2,4.3c1.6-0.8,2.1-2.1,2.9-3.2c2.5-3.3,6.5-4.5,10.5-2.9c-5.9,3.9-9,9.9-12,15.9
		c-6.2,12.6-10.8,25.7-13.8,39.4c-1.2,5.3-2.6,10.5-3.8,15.7c-0.4,1.6-1,3-2.1,4.2c-3.1,3.2-6.2,6.3-9.2,9.6c-0.9,0.9-1.8,2-2.3,3.1
		c-7.2,15.3-14.4,30.5-21.6,45.8c-0.7,1.4-1,3-1.2,4.6c-1.2,7.9-3.3,15.6-7.2,22.6c-1.1,2.1-2.5,4.1-3.9,6
		c-5.2,6.5-6.3,13.5-3.1,21.1c0.1,0.3,0.2,0.7,0.4,1c-0.5,0.8-1.1,1.6-1.6,2.5c-9.2,13.9-16.7,28.7-22.3,44.4
		c-1.2,3.2-1.8,6.6-2.8,9.9c-0.2,0.8-0.6,1.6-0.9,2.4c0-226.1,0-452.2,0-678.4c169.7,0,339.4,0,509.1,0
		C560.6,26,560.6,49.2,560.6,72.4z M401.7,92.4c0.7,0,1,0.1,1.2,0.1c5.8-1.1,11.1-0.2,15.8,3.5c0.5,0.4,1.5,0.5,2.2,0.5
		c11.7-0.7,23.3-0.7,35,0.8c12,1.6,23.6,4.3,34.4,10.1c0.2,0.1,0.5,0.1,0.8,0.2c4.7-3.2,10.1-3.2,15.6-3c0.4-0.6,0.8-1.2,1.1-1.8
		c1.8-2.9,3.6-5.6,6.2-7.8c4.1-3.6,6.3-8.5,7.6-13.7c0.5-1.8-0.2-2.6-2-2.4c-1.5,0.2-3,0.8-4.5,1.4c-1.6,0.6-3.1,1.4-5.1,2.4
		c1.2-3.7,2.3-6.8,3.3-9.9c0.3-1,0.6-2.2,0.3-3.1c-1.9-4.6-1.1-8.8,1.3-12.9c0.1-0.2,0.2-0.5,0.3-0.7c0.3-1.2,0.8-2.1,2.2-1.9
		c0.3-3.1,0.6-5.9,0.9-9c-0.7,0.7-1.3,1.3-1.9,1.9c-3.2,2.9-6.3,5.9-9.8,8.5c-1.8,1.4-4.2,2.3-6.4,3.2c-2.3,0.9-4.5,0.5-6.6-0.9
		c-4-2.5-6.4-6.2-7.5-10.8c-0.3-1.1-0.1-2,0.4-3c0.7-1.3,1.4-2.6,2.1-3.9c-3.7-2.7-6.2-6.1-8.2-9.9c-1.5-2.7-2.4-5.5-1.2-8.6
		c0.4-1.1,0-1.9-0.6-2.9c-1.9-3.3-3.7-6.6-5.5-10c-0.8-1.5-1.2-3.1-2-5c-0.6,1.2-1,2-1.4,2.9c-4.4,9.3-10.1,17.6-17.2,25
		c-3,3.1-3,3-2.1,7.1c0.1,0.5,0.4,1,0.5,1.5c0.2,1.2,0.6,2.5,0.4,3.6c-0.5,3-2.1,5.3-3.9,7.5c-4.1-1.2-4.6-1-6.8,2.3
		c-1.1,1.6-2.3,3-3.6,4.6c-1.6-2.8-2.8-5.4-4.3-7.7c-1.8-2.9-4.1-5.4-7.1-6.9c-2-1.1-4.2-1.8-6.7-1.1c-0.7,3.4-1.3,6.8-2,10.1
		c-1,4.8-2,9.7-3.1,14.5c-0.4,1.7-1.2,3.5-3.2,3.8c-2.1,0.3-3.5-1-4.8-2.4c-0.2-0.3-0.4-0.6-0.6-0.9c-2.2-3.3-4.6-4-8.5-2.4
		c-0.6,2.5-0.9,5,0.7,7.5c1.1,1.7,1.5,3.8,1.9,5.7c0.7,3.5,1.1,7,1.6,10.5C401,90.1,401.4,91.2,401.7,92.4z"/>
	<path class="st0" d="M190,789.1c1.8-0.4,3.6-0.7,5.4-1.1c11.6-2.2,21.4-7.3,29.3-16.3c27.9-32.2,51.1-67.5,70.3-105.5
		c9-17.7,16.7-35.9,23.5-54.5c0.4-1,0.5-2.1,0.6-3.1c0-3.2,0-6.4-0.1-9.6c0-0.8,0-1.5,0-2.9c0.6,0.7,0.9,0.9,1,1.1
		c2.9,4.8,7,8.2,12.1,10.3c2.3,1,3.1,2.5,2.9,4.7c-0.1,2-0.3,4-0.5,6.6c0.9-0.8,1.4-1.3,2-1.8c1.7-1.4,3.5-2.2,5.9-1.2
		c2.5,1,5.1,0.6,7.5-0.3c2.8-1,5.6-2.2,8.2-3.6c5.6-3.1,10.7-6.8,15.3-11.3c2.2-2.1,4.7-4,7.4-5.5c5.5-3,10.1-1.4,12.9,4.3
		c1.1,2.2,1.7,4.4,1.4,6.9c-0.4,4.3-0.1,8.7,0.9,12.9c0.8,3.1,1.9,6.1,5,7.7c0.1,0.1,0.3,0.1,0.6,0.1c0.1-2.5,1.4-4.3,3.3-5.8
		c1.3-1.1,2.7-1.7,4.6-1.7c3.1,0.2,5.9-0.9,8.7-2c0.9-0.4,1.8-0.8,2.9-1.3c1.5,1.9,2.5,4.2,3.8,6.2c1.3,2.1,2.5,4.2,3.7,6.4
		c6.7-7.2,14.8-12.1,23-16.7c6.7-3.7,12.9-8.2,18.2-13.6c4.7-4.7,9-9.7,13.5-14.6c0.6-0.6,1.1-1.3,1.8-2.1c0.6,1.7,1,3.2,1.6,4.6
		c0.7,1.5,1.7,2.6,3.2,3.5c2.6-6.1,6.8-10.9,11.1-15.6c5-5.5,10.1-10.9,15.4-16.1c8-8,13.2-17.6,16.6-28.3c1.1-3.6,1.9-7.4,2.8-11
		c0.1-0.4,0.2-0.8,0.5-1.6c1.2,1.4,2.1,2.7,3.1,3.8c1,1.1,2.1,2.5,3.8,2.2c0.9-5.4,1.6-10.6,2.7-15.7c2.3-10.4,4.7-20.8,7.1-31.3
		c0.2-0.8,0.5-1.7,1-2.4c1.7-2.6,2.3-5.5,2.5-8.6c0.4-7.9-1.2-15.5-3.6-22.9c-1.7-5.3-3.5-10.6-5.3-15.9c-0.4-1-0.5-1.9,0.3-3
		c4.7-6.3,5.5-13.5,3.9-21c-0.7-3.3-2-6.6-3-9.9c-0.4-1.2-0.7-2.5-0.7-3.8c0.2-10.5,0.6-21,0.7-31.6c0.1-11.3-0.3-22.6-2.4-33.8
		c-0.5-2.4-1.1-4.8-1.7-7.4c1.5,0,2.8,0,4.5,0c-0.4-0.6-0.6-0.8-0.8-1c-3.3-2.2-5.4-5.3-6.8-8.9c-2.1-5.1-2.8-10.4-3.1-15.8
		c-0.2-2.6-0.2-5.3,0-8c0.2-2.2,0.5-4.4,1.2-6.5c2.8-8.7,5.4-17.4,6.4-26.5c0.5-4.4,0.6-8.8-0.5-13.2c-0.5-1.9-0.1-4-0.1-6.1
		c0-0.3,0.1-0.5,0.1-0.8c0-5.5,1.1-10.7,3.7-15.7c2.5-4.8,3.1-10.3,3.5-15.7c0.7-10.8-0.8-21.3-3.3-31.8c-2.1-9-2.2-18,0.1-27.1
		c0.8-3.1,2-5.9,4.4-8c2.2-1.9,2.8-4.3,3.2-7c0.7-5.6,1.2-11.3,0.9-16.9c-0.2-2.8-0.7-5.5-1-8.5c-1,0.4-1.7,0.6-2.4,0.9
		c-0.2-0.4-0.5-0.7-0.5-1.1c-0.5-3.7-0.2-7.4,0.5-11.1c1.1-5,3-9.8,5.3-14.4c0.1-0.1,0.3-0.1,0.4-0.2c0,238.7,0,477.4,0,716.1
		C437,789.1,313.5,789.1,190,789.1z"/>
	<path class="st0" d="M51.4,684c0.3,1,0.7,2,1,3c0.3,0.9,0.6,1.9,1,2.7c2.1,4.3,6.1,6.1,10.6,4.5c2.5-0.9,5.1-2.2,7.2-3.8
		c3.7-2.8,7.2-6,10.7-9.1c2.2-2,4.2-3,7.1-1.5c1.1,0.5,2.4,0.7,3.6,0.8c1.3,0.2,2.7,0.1,4,0.4c2.7,0.6,5-0.1,6.8-2
		c3.4-3.5,6.9-6.9,9.8-10.7c2.7-3.4,5.7-6.5,9.1-9.2c2.6-2,5.1-4.1,7.6-6.2c1.9-1.5,3.4-1.4,4.8,0.5c0.9,1.3,1.6,2.7,2.2,4.2
		c1.2,3,3.3,4.2,6.4,3.5c2.5-0.5,3.7,0.6,3.1,3.2c-0.3,1.4-0.8,2.7-1.3,4c-1.9,4.8-3.4,9.7-3.6,14.9c-0.1,3.1,0.1,6.2,1.2,9.1
		c0.4,1.1,1.1,2.2,1.7,3.4c2.8-1.5,4.9-0.5,6.8,1.4c-1.3,4.7-2.8,9.3-3.9,14c-1.4,5.7-2.8,11.3-3.6,17.1c-1.2,8.7-0.7,17.5,1.7,26
		c0.6,2.1,1.7,4.1,2.8,5.9c1,1.7,2.7,2.8,5,2.7c1.4-2.8,3.9-3.9,6.8-4.5c3.9-0.7,7.9-0.9,11.9-0.5c1.2,0.1,1.8,0.7,2.5,1.6
		c2.2,3,2.9,5.8,0.8,9.3c-1.8,2.9-2.6,6.4-2.7,9.9c-0.2,5.4,1.8,8.2,7,9.7c0.3,0.1,0.6,0.3,0.9,0.5c-43,0-86,0-129,0
		C51.4,754,51.4,719,51.4,684z"/>
	<path class="st0" d="M410.4,213.7c-17,0-30.5-13.7-30.5-30.8c0.1-16.9,13.6-30.5,30.6-30.5c16.8,0,30.5,13.7,30.5,30.6
		C441.1,200,427.4,213.7,410.4,213.7z"/>
	<path class="st0" d="M528.6,186.4c-0.3,5.8-1.3,11.3-3.6,16.6c-1.3,3-3.1,5.8-5.5,8.1c-5.7,5.4-12.8,5.4-18.5,0
		c-2.3-2.2-4-4.7-5.3-7.6c-4.8-11.2-4.9-22.5-0.1-33.7c1.2-2.7,2.9-5.3,5-7.5c5.8-6.2,13.5-6.1,19.4-0.1c3.8,3.8,5.9,8.6,7.1,13.7
		C527.8,179.4,528.1,182.9,528.6,186.4z"/>
	<path class="st0" d="M490,259.6c-0.2-9.4-4.2-16.5-10.2-22.5c-1.1,0.5-2.1,1.4-2.9,1.2c-1.1-0.2-2.1-1.1-3-1.9
		c-0.9-0.7-1.5-1.7-2.3-2.6c-0.2-0.2-0.2-0.5-0.4-0.8c2.8-2.2,5.8-4.3,8.5-6.7c2.7-2.5,4-5.9,5.3-9.5c0.6,0.4,1,0.5,1.3,0.8
		c5.9,4.9,10.3,10.9,12.8,18.2c2.6,7.7-0.1,16.9-6.2,21.9C492.1,258.3,491.2,258.8,490,259.6z"/>
	<path d="M401.7,92.4c-0.3-1.2-0.6-2.3-0.8-3.4c-0.6-3.5-1-7-1.6-10.5c-0.4-2-0.9-4.1-1.9-5.7c-1.6-2.5-1.3-5-0.7-7.5
		c3.9-1.7,6.3-1,8.5,2.4c0.2,0.3,0.3,0.6,0.6,0.9c1.3,1.4,2.7,2.7,4.8,2.4c2.1-0.3,2.8-2.1,3.2-3.8c1.1-4.8,2.1-9.7,3.1-14.5
		c0.7-3.4,1.3-6.7,2-10.1c2.5-0.7,4.7,0,6.7,1.1c3.1,1.6,5.4,4.1,7.1,6.9c1.5,2.4,2.7,4.9,4.3,7.7c1.2-1.6,2.5-3,3.6-4.6
		c2.2-3.3,2.7-3.5,6.8-2.3c1.9-2.1,3.5-4.5,3.9-7.5c0.2-1.2-0.2-2.4-0.4-3.6c-0.1-0.5-0.4-1-0.5-1.5c-0.9-4.1-0.9-4.1,2.1-7.1
		c7.1-7.4,12.9-15.7,17.2-25c0.4-0.8,0.8-1.7,1.4-2.9c0.8,2,1.2,3.6,2,5c1.7,3.4,3.6,6.7,5.5,10c0.6,1,1,1.8,0.6,2.9
		c-1.2,3.1-0.2,5.8,1.2,8.6c2,3.8,4.5,7.2,8.2,9.9c-0.7,1.3-1.3,2.7-2.1,3.9c-0.6,1-0.7,1.9-0.4,3c1.1,4.6,3.5,8.3,7.5,10.8
		c2.1,1.3,4.3,1.7,6.6,0.9c2.2-0.8,4.5-1.7,6.4-3.2c3.4-2.6,6.5-5.7,9.8-8.5c0.6-0.6,1.2-1.2,1.9-1.9c-0.3,3-0.6,5.9-0.9,9
		c-1.4-0.2-1.9,0.7-2.2,1.9c-0.1,0.3-0.2,0.5-0.3,0.7c-2.4,4.1-3.2,8.3-1.3,12.9c0.4,0.8,0,2.1-0.3,3.1c-1,3.1-2,6.2-3.3,9.9
		c2-1,3.5-1.8,5.1-2.4c1.5-0.6,3-1.2,4.5-1.4c1.9-0.3,2.5,0.5,2,2.4c-1.3,5.2-3.5,10.1-7.6,13.7c-2.6,2.3-4.5,5-6.2,7.8
		c-0.4,0.6-0.7,1.2-1.1,1.8c-5.5-0.2-10.9-0.2-15.6,3c-0.3-0.1-0.6-0.1-0.8-0.2c-10.8-5.7-22.4-8.5-34.4-10.1
		c-11.6-1.5-23.3-1.5-35-0.8c-0.7,0-1.7,0-2.2-0.5c-4.7-3.8-10-4.6-15.8-3.5C402.6,92.5,402.4,92.4,401.7,92.4z"/>
</g>
</svg>
